<?xml version="1.0"?>
<svg version="1.1" xmlns="http://www.w3.org/2000/svg" width="400" height="50" style=""><path fill="#38e068" d="M15.9228515625,32.470703125l0-2.314453125q0-2.40234375,0.08056640625-4.76806640625t0.13916015625-4.76806640625q0-0.4541015625-0.029296875-1.0107421875q-0.0146484375-0.1611328125-0.0146484375-0.3076171875q0-0.3662109375,0.05859375-0.7177734375q0.0732421875-0.46875,0.35888671875-0.8056640625t0.94482421875-0.3369140625q0.5419921875,0,0.82763671875,0.1171875t0.40283203125,0.34423828125t0.1318359375,0.5712890625t0.0146484375,0.79833984375q0,2.431640625-0.05859375,4.8779296875q-0.0439453125,1.6259765625-0.0439453125,3.251953125q0,0.8203125,0.0146484375,1.640625q0.029296875,2.431640625,0.22705078125,4.86328125t0.66650390625,4.8046875q1.46484375-0.05859375,2.9296875-0.146484375t2.9296875-0.087890625q0.146484375,0,0.41748046875,0.029296875t0.5419921875,0.1025390625t0.46142578125,0.1904296875t0.1904296875,0.3369140625q0,0.146484375-0.1318359375,0.2490234375t-0.2490234375,0.1611328125l-0.029296875,0q-0.234375,0.1171875-0.93017578125,0.22705078125t-1.58203125,0.16845703125t-1.8603515625,0.1025390625t-1.8310546875,0.0732421875t-1.48681640625,0.0439453125t-0.7763671875,0.0146484375l-0.1318359375,0q-0.3515625,0-0.791015625-0.1171875q-0.52734375-0.146484375-0.6591796875-0.5712890625q-0.263671875-1.083984375-0.41748046875-2.24853515625t-0.234375-2.36572265625t-0.08056640625-2.40234375z M29.218798828125,35.13671875q0-1.025390625,0.22705078125-2.4169921875t0.76904296875-2.63671875t1.42822265625-2.11669921875t2.23388671875-0.87158203125q1.259765625,0,1.8896484375,0.72509765625t0.6298828125,1.95556640625q0,0.8056640625-0.30029296875,1.76513671875t-0.85693359375,1.81640625t-1.318359375,1.42822265625t-1.69921875,0.5712890625l-0.380859375-0.029296875q0,0.3955078125,0.1171875,1.06201171875t0.34423828125,1.32568359375t0.5859375,1.1572265625t0.87158203125,0.498046875q0.7470703125,0,1.435546875-0.6005859375t1.3037109375-1.3330078125t1.142578125-1.3330078125t0.966796875-0.6005859375q0.234375,0,0.4833984375,0.0732421875t0.2783203125,0.41015625q0,0.205078125-0.10986328125,0.3369140625t-0.19775390625,0.29296875q-0.4541015625,0.7763671875-0.98876953125,1.4794921875t-1.20849609375,1.2744140625t-1.47216796875,0.90087890625t-1.76513671875,0.32958984375q-1.259765625,0-2.0947265625-0.44677734375t-1.34765625-1.201171875t-0.73974609375-1.7431640625t-0.22705078125-2.07275390625z M31.840869140625,34.0234375l0.41015625,0.3662109375q0.29296875,0.263671875,0.5859375,0.1171875t0.52734375-0.53466796875t0.43212890625-0.95947265625t0.3515625-1.171875t0.22705078125-1.171875t0.0732421875-0.9521484375l0-0.498046875t-0.0439453125-0.52734375t-0.15380859375-0.41748046875t-0.34423828125-0.21240234375q-0.0732421875-0.0146484375-0.1318359375-0.0146484375q-0.498046875,0-0.849609375,0.6298828125q-0.380859375,0.703125-0.615234375,1.70654296875t-0.3369140625,2.05810546875t-0.1318359375,1.58203125z M41.46005859375,34.0234375q0-0.8056640625,0.15380859375-1.72119140625t0.52734375-1.67724609375t1.03271484375-1.259765625t1.6845703125-0.498046875q0.6884765625,0,1.3330078125,0.22705078125t1.2158203125,0.62255859375q0.17578125-0.29296875,0.556640625-0.35888671875t0.673828125-0.06591796875q0.1171875,0,0.32958984375,0.0146484375t0.41748046875,0.087890625t0.35888671875,0.17578125t0.18310546875,0.29296875q0.1171875,1.025390625,0.1611328125,2.04345703125t0.1318359375,2.02880859375q0.146484375,1.8896484375,0.4541015625,3.7353515625t0.3076171875,3.7353515625q0,0.8935546875-0.08056640625,1.93359375t-0.4248046875,1.92626953125t-1.00341796875,1.47216796875t-1.8310546875,0.5859375q-1.0546875,0-1.61865234375-0.37353515625t-1.01806640625-1.25244140625q0.029296875-0.29296875,0.37353515625-0.38818359375t0.59326171875-0.09521484375q0.234375,0,0.47607421875,0.0439453125t0.38818359375,0.146484375l0.3662109375,0.234375q0.5419921875-1.11328125,0.6591796875-2.431640625t0.1171875-2.548828125q0-1.025390625-0.1025390625-2.02880859375t-0.205078125-2.01416015625q-1.025390625,1.8603515625-3.1201171875,1.8603515625q-0.966796875,0-1.57470703125-0.41015625t-0.9375-1.0400390625t-0.4541015625-1.4208984375t-0.12451171875-1.58203125z M43.26181640625,34.1552734375q0,0.3662109375,0.029296875,0.94482421875t0.15380859375,1.13525390625t0.35888671875,0.95947265625t0.6591796875,0.40283203125q0.8056640625,0,1.2744140625-0.6298828125t0.73974609375-1.50146484375t0.43212890625-1.8017578125t0.41015625-1.53076171875q-0.029296875-0.205078125-0.029296875-0.40283203125l0-0.40283203125q-0.3369140625-0.6298828125-0.9814453125-1.09130859375t-1.3330078125-0.62255859375q-0.087890625-0.0146484375-0.1611328125-0.0146484375q-0.41015625,0-0.673828125,0.4833984375q-0.3369140625,0.5859375-0.52734375,1.39892578125t-0.27099609375,1.60400390625t-0.08056640625,1.0693359375z M53.979638671875,34.1845703125q0-1.34765625,0.31494140625-2.64404296875t0.53466796875-2.58544921875q0.05859375-0.3369140625,0.46142578125-0.41748046875t0.68115234375-0.08056640625q0.4833984375,0,0.7763671875,0.146484375q0.1171875,0.05859375,0.2197265625,0.1318359375t0.1025390625,0.1904296875q0,1.259765625-0.30029296875,2.4609375t-0.30029296875,2.548828125q0,0.4541015625,0.06591796875,0.85693359375t0.12451171875,0.79833984375l0.087890625,0.4248046875q0,0.1171875,0.0146484375,0.205078125t0.0439453125,0.205078125q0,0.263671875-0.37353515625,0.35888671875t-0.65185546875,0.09521484375q-0.4248046875,0-0.78369140625-0.16845703125t-0.56396484375-0.57861328125l-0.205078125-0.4248046875q-0.17578125-0.3369140625-0.17578125-0.75439453125t-0.0732421875-0.76904296875z M54.917138671875,25.3662109375l0-0.2783203125q0-0.6884765625,0.34423828125-1.23046875t1.03271484375-0.5419921875q0.087890625,0,0.16845703125,0.0146484375t0.16845703125,0.0146484375q0.17578125,0.029296875,0.46142578125,0.13916015625t0.28564453125,0.34423828125l0,0.029296875q-0.05859375,0.1171875-0.0732421875,0.24169921875t-0.0732421875,0.21240234375l0.029296875-0.029296875q-0.17578125,0.4541015625-0.28564453125,0.732421875t-0.24169921875,0.44677734375t-0.32958984375,0.24169921875t-0.56396484375,0.0732421875q-0.05859375,0-0.205078125-0.0146484375t-0.31494140625-0.05859375t-0.28564453125-0.1171875t-0.1171875-0.2197265625z M59.7755859375,25.234375q0-0.205078125,0.439453125-0.3515625t0.99609375-0.24169921875t1.07666015625-0.13916015625t0.71044921875-0.0732421875q0-0.3955078125,0.029296875-0.79833984375t0.1611328125-0.7177734375t0.41748046875-0.50537109375t0.79833984375-0.1904296875q0.4248046875,0,0.64453125,0.1025390625t0.46875,0.4248046875q0.05859375,0.17578125,0.05859375,0.3369140625l0,0.49072265625t-0.029296875,0.50537109375q0.5419921875-0.05859375,1.07666015625-0.13916015625t1.07666015625-0.08056640625q0.3955078125,0,0.5419921875,0.0146484375t0.29296875,0.3515625q0.1171875,0.3369140625-0.28564453125,0.5126953125t-0.966796875,0.263671875t-1.12060546875,0.1318359375t-0.673828125,0.0439453125q-0.17578125,2.51953125-0.35888671875,4.9951171875t-0.18310546875,5.0244140625q0,1.142578125,0.0732421875,2.3583984375t0.41015625,2.2998046875q0.087890625,0.3369140625,0.29296875,0.6298828125t0.205078125,0.6298828125q0,0.205078125-0.1611328125,0.322265625t-0.38818359375,0.19775390625t-0.4541015625,0.09521484375t-0.37353515625,0.0146484375q-0.9228515625,0-1.40625-0.6884765625t-0.69580078125-1.64794921875t-0.22705078125-1.97021484375t-0.0146484375-1.640625q0-1.2890625,0.05126953125-2.63671875t0.12451171875-2.666015625t0.205078125-2.578125t0.3076171875-2.34375q-0.5126953125,0.05859375-1.00341796875,0.1318359375t-1.00341796875,0.0732421875q-0.1171875,0-0.31494140625-0.0146484375t-0.37353515625-0.0732421875t-0.30029296875-0.1611328125t-0.12451171875-0.29296875z M76.68486328125,19.6240234375q0-1.025390625,0.3515625-1.376953125t0.9814453125-0.3515625q0.17578125,0,0.37353515625,0.029296875t0.37353515625,0.087890625q0.9814453125-0.1904296875,1.8603515625-0.1904296875q1.4208984375,0,2.578125,0.498046875q1.8603515625,0.791015625,3.076171875,2.34375t1.787109375,3.6474609375t0.5712890625,4.2919921875q0,1.23046875-0.16845703125,2.5634765625t-0.65185546875,2.4755859375q-0.4248046875,1.025390625-1.171875,2.14599609375t-1.69189453125,2.1240234375t-2.0361328125,1.7578125t-2.20458984375,1.01806640625l0,0.1171875q0,0.29296875-0.15380859375,0.47607421875t-0.37353515625,0.2783203125t-0.50537109375,0.12451171875t-0.53466796875,0.029296875q-0.146484375,0-0.41748046875-0.029296875t-0.52734375-0.10986328125t-0.43212890625-0.21240234375t-0.17578125-0.3662109375q0-2.666015625-0.13916015625-5.33935546875t-0.31494140625-5.3466796875t-0.31494140625-5.33935546875t-0.13916015625-5.3466796875z M79.45341796875,18.876953125q0.146484375,1.40625,0.1904296875,2.80517578125t0.1318359375,2.80517578125q0.234375,3.6328125,0.5419921875,7.22900390625t0.3662109375,7.22900390625q1.40625-0.9228515625,2.40966796875-2.109375t1.64794921875-2.578125t0.94482421875-2.92236328125t0.30029296875-3.15673828125q0-1.171875-0.205078125-2.578125t-0.703125-2.7099609375t-1.34033203125-2.3583984375t-2.10205078125-1.5087890625q-0.263671875-0.087890625-0.63720703125-0.146484375t-1.19384765625-0.05859375q-0.087890625,0-0.17578125,0.029296875t-0.17578125,0.029296875z M91.621435546875,35.13671875q0-1.025390625,0.22705078125-2.4169921875t0.76904296875-2.63671875t1.42822265625-2.11669921875t2.23388671875-0.87158203125q1.259765625,0,1.8896484375,0.72509765625t0.6298828125,1.95556640625q0,0.8056640625-0.30029296875,1.76513671875t-0.85693359375,1.81640625t-1.318359375,1.42822265625t-1.69921875,0.5712890625l-0.380859375-0.029296875q0,0.3955078125,0.1171875,1.06201171875t0.34423828125,1.32568359375t0.5859375,1.1572265625t0.87158203125,0.498046875q0.7470703125,0,1.435546875-0.6005859375t1.3037109375-1.3330078125t1.142578125-1.3330078125t0.966796875-0.6005859375q0.234375,0,0.4833984375,0.0732421875t0.2783203125,0.41015625q0,0.205078125-0.10986328125,0.3369140625t-0.19775390625,0.29296875q-0.4541015625,0.7763671875-0.98876953125,1.4794921875t-1.20849609375,1.2744140625t-1.47216796875,0.90087890625t-1.76513671875,0.32958984375q-1.259765625,0-2.0947265625-0.44677734375t-1.34765625-1.201171875t-0.73974609375-1.7431640625t-0.22705078125-2.07275390625z M94.243505859375,34.0234375l0.41015625,0.3662109375q0.29296875,0.263671875,0.5859375,0.1171875t0.52734375-0.53466796875t0.43212890625-0.95947265625t0.3515625-1.171875t0.22705078125-1.171875t0.0732421875-0.9521484375l0-0.498046875t-0.0439453125-0.52734375t-0.15380859375-0.41748046875t-0.34423828125-0.21240234375q-0.0732421875-0.0146484375-0.1318359375-0.0146484375q-0.498046875,0-0.849609375,0.6298828125q-0.380859375,0.703125-0.615234375,1.70654296875t-0.3369140625,2.05810546875t-0.1318359375,1.58203125z M103.262109375,29.0869140625q0-0.1171875,0.13916015625-0.21240234375t0.31494140625-0.13916015625t0.35888671875-0.05859375t0.27099609375-0.0146484375q0.6591796875,0,1.1279296875,0.5859375t0.81298828125,1.50146484375t0.5859375,2.021484375t0.46142578125,2.20458984375t0.43212890625,2.01416015625t0.47607421875,1.41357421875q0.4541015625-0.8935546875,0.82763671875-2.1533203125t0.6884765625-2.607421875t0.556640625-2.65869140625t0.38818359375-2.29248046875q0.05859375-0.263671875,0.3662109375-0.32958984375t0.5126953125-0.06591796875q0.3369140625,0,0.5859375,0.09521484375t0.2490234375,0.41748046875q0,0.5419921875-0.1318359375,1.47216796875t-0.35888671875,2.08740234375t-0.52734375,2.373046875t-0.64453125,2.30712890625t-0.7177734375,1.93359375t-0.73974609375,1.19384765625q-0.17578125,0.205078125-0.54931640625,0.28564453125t-0.62255859375,0.08056640625q-0.8642578125,0-1.435546875-0.4541015625l0,0.029296875q-0.8935546875-0.8349609375-1.318359375-2.0361328125t-0.615234375-2.5048828125t-0.34423828125-2.5927734375t-0.52001953125-2.34375q-0.05859375-0.1171875-0.146484375-0.34423828125t-0.205078125-0.4541015625t-0.19775390625-0.43212890625t-0.08056640625-0.322265625z M114.81489257812,35.13671875q0-1.025390625,0.22705078125-2.4169921875t0.76904296875-2.63671875t1.42822265625-2.11669921875t2.23388671875-0.87158203125q1.259765625,0,1.8896484375,0.72509765625t0.6298828125,1.95556640625q0,0.8056640625-0.30029296875,1.76513671875t-0.85693359375,1.81640625t-1.318359375,1.42822265625t-1.69921875,0.5712890625l-0.380859375-0.029296875q0,0.3955078125,0.1171875,1.06201171875t0.34423828125,1.32568359375t0.5859375,1.1572265625t0.87158203125,0.498046875q0.7470703125,0,1.435546875-0.6005859375t1.3037109375-1.3330078125t1.142578125-1.3330078125t0.966796875-0.6005859375q0.234375,0,0.4833984375,0.0732421875t0.2783203125,0.41015625q0,0.205078125-0.10986328125,0.3369140625t-0.19775390625,0.29296875q-0.4541015625,0.7763671875-0.98876953125,1.4794921875t-1.20849609375,1.2744140625t-1.47216796875,0.90087890625t-1.76513671875,0.32958984375q-1.259765625,0-2.0947265625-0.44677734375t-1.34765625-1.201171875t-0.73974609375-1.7431640625t-0.22705078125-2.07275390625z M117.43696289063,34.0234375l0.41015625,0.3662109375q0.29296875,0.263671875,0.5859375,0.1171875t0.52734375-0.53466796875t0.43212890625-0.95947265625t0.3515625-1.171875t0.22705078125-1.171875t0.0732421875-0.9521484375l0-0.498046875t-0.0439453125-0.52734375t-0.15380859375-0.41748046875t-0.34423828125-0.21240234375q-0.0732421875-0.0146484375-0.1318359375-0.0146484375q-0.498046875,0-0.849609375,0.6298828125q-0.380859375,0.703125-0.615234375,1.70654296875t-0.3369140625,2.05810546875t-0.1318359375,1.58203125z M127.05615234375,39.736328125q0-0.4248046875,0.03662109375-0.8935546875t0.06591796875-0.87890625l0.087890625-2.197265625q0.146484375-2.63671875,0.35888671875-5.185546875t0.35888671875-5.15625q0.087890625-1.435546875,0.1318359375-2.81982421875t0.1318359375-2.81982421875q-0.05859375-0.1171875-0.05859375-0.1611328125q0-0.205078125,0.15380859375-0.322265625t0.35888671875-0.19775390625t0.43212890625-0.10986328125t0.34423828125-0.029296875l0.3369140625,0q0.4541015625,0.05859375,0.6591796875,0.28564453125t0.263671875,0.5419921875t0.029296875,0.673828125t-0.029296875,0.66650390625q0,2.1240234375-0.1025390625,4.32861328125t-0.234375,4.423828125t-0.24169921875,4.4384765625t-0.10986328125,4.38720703125l0,1.025390625q0,0.6884765625-0.38818359375,0.908203125t-1.07666015625,0.2197265625q-0.6005859375,0-1.0546875-0.263671875t-0.4541015625-0.8642578125z M133.48198242188,34.814453125q0-0.8349609375,0.21240234375-1.72119140625t0.673828125-1.5966796875t1.16455078125-1.1572265625t1.69921875-0.44677734375q0.7470703125,0,1.57470703125,0.25634765625t1.51611328125,0.732421875t1.12060546875,1.16455078125t0.43212890625,1.5380859375q0,1.025390625-0.37353515625,1.9482421875t-1.04736328125,1.64794921875t-1.57470703125,1.142578125t-1.95556640625,0.41748046875q-0.8642578125,0-1.5087890625-0.31494140625t-1.07666015625-0.84228515625t-0.64453125-1.2451171875t-0.21240234375-1.5234375z M135.63530273438,34.78515625q0,0.263671875,0.08056640625,0.7763671875t0.24169921875,1.00341796875t0.41748046875,0.849609375t0.62255859375,0.32958984375q0.7763671875-0.087890625,1.28173828125-0.50537109375t0.8203125-1.01806640625t0.439453125-1.3037109375t0.12451171875-1.3330078125q0-0.8056640625-0.31494140625-1.34765625t-1.03271484375-0.87890625q0,0.029296875,0.029296875,0.029296875t0.029296875-0.029296875l-0.3662109375-0.087890625q-0.146484375-0.05859375-0.35888671875-0.1318359375t-0.41748046875-0.322265625q-0.5712890625,0.205078125-0.88623046875,0.52734375t-0.47607421875,0.78369140625t-0.19775390625,1.10595703125t-0.03662109375,1.552734375z M144.5806640625,29.2333984375q0-0.6884765625,0.27099609375-1.01806640625t0.98876953125-0.32958984375q0.4248046875,0,0.79833984375,0.17578125t0.37353515625,0.7470703125q0.05859375,0.8349609375,0.05859375,1.75048828125t0.1611328125,1.73583984375q0.3662109375-0.6005859375,0.82763671875-1.201171875t1.01806640625-1.0693359375t1.2158203125-0.75439453125t1.435546875-0.28564453125q1.0546875,0,1.787109375,0.439453125t1.20849609375,1.142578125t0.6884765625,1.58935546875t0.21240234375,1.77978515625q0,1.376953125-0.41748046875,2.24853515625t-1.10595703125,1.36962890625t-1.56005859375,0.673828125t-1.75048828125,0.17578125q-0.7763671875,0-1.4501953125-0.30029296875t-0.9375-1.13525390625q0-0.234375,0.34423828125-0.29296875t0.49072265625-0.05859375q0.4833984375,0,0.7177734375,0.263671875q0.17578125,0.205078125,0.38818359375,0.41748046875t0.44677734375,0.21240234375q0.4541015625,0,0.9521484375-0.25634765625t0.91552734375-0.673828125t0.703125-0.98876953125t0.28564453125-1.171875q0-0.5126953125-0.087890625-1.2744140625t-0.30029296875-1.46484375t-0.5859375-1.2158203125t-0.94482421875-0.5126953125q-0.8642578125,0-1.56005859375,0.791015625t-1.1572265625,1.904296875t-0.7177734375,2.314453125t-0.25634765625,2.0068359375t0.1025390625,2.0361328125t0.21240234375,2.55615234375t0.21240234375,2.55615234375t0.1025390625,2.0361328125q0,0.205078125-0.16845703125,0.32958984375t-0.40283203125,0.19775390625t-0.47607421875,0.087890625t-0.35888671875,0.0146484375q-0.3955078125,0-0.82763671875-0.087890625t-0.59326171875-0.5419921875q-0.205078125-0.7177734375-0.380859375-2.04345703125t-0.31494140625-2.9296875t-0.24169921875-3.369140625t-0.17578125-3.40576171875t-0.10986328125-3.0029296875t-0.03662109375-2.16796875z M158.62368164062,35.13671875q0-1.025390625,0.22705078125-2.4169921875t0.76904296875-2.63671875t1.42822265625-2.11669921875t2.23388671875-0.87158203125q1.259765625,0,1.8896484375,0.72509765625t0.6298828125,1.95556640625q0,0.8056640625-0.30029296875,1.76513671875t-0.85693359375,1.81640625t-1.318359375,1.42822265625t-1.69921875,0.5712890625l-0.380859375-0.029296875q0,0.3955078125,0.1171875,1.06201171875t0.34423828125,1.32568359375t0.5859375,1.1572265625t0.87158203125,0.498046875q0.7470703125,0,1.435546875-0.6005859375t1.3037109375-1.3330078125t1.142578125-1.3330078125t0.966796875-0.6005859375q0.234375,0,0.4833984375,0.0732421875t0.2783203125,0.41015625q0,0.205078125-0.10986328125,0.3369140625t-0.19775390625,0.29296875q-0.4541015625,0.7763671875-0.98876953125,1.4794921875t-1.20849609375,1.2744140625t-1.47216796875,0.90087890625t-1.76513671875,0.32958984375q-1.259765625,0-2.0947265625-0.44677734375t-1.34765625-1.201171875t-0.73974609375-1.7431640625t-0.22705078125-2.07275390625z M161.24575195312,34.0234375l0.41015625,0.3662109375q0.29296875,0.263671875,0.5859375,0.1171875t0.52734375-0.53466796875t0.43212890625-0.95947265625t0.3515625-1.171875t0.22705078125-1.171875t0.0732421875-0.9521484375l0-0.498046875t-0.0439453125-0.52734375t-0.15380859375-0.41748046875t-0.34423828125-0.21240234375q-0.0732421875-0.0146484375-0.1318359375-0.0146484375q-0.498046875,0-0.849609375,0.6298828125q-0.380859375,0.703125-0.615234375,1.70654296875t-0.3369140625,2.05810546875t-0.1318359375,1.58203125z M170.86494140625,30.4345703125q0-0.6005859375,0.21240234375-1.0107421875t0.90087890625-0.41015625q0.263671875,0,0.6591796875,0.08056640625t0.4541015625,0.40283203125q0.146484375,0.8642578125,0.1611328125,1.875t0.1025390625,1.904296875q0.3369140625-0.6591796875,0.8642578125-1.4208984375t1.201171875-1.40625t1.46484375-1.0693359375t1.611328125-0.4248046875q0.05859375,0,0.2197265625,0.0439453125t0.30029296875,0.12451171875t0.16845703125,0.18310546875t-0.1611328125,0.1904296875q-0.05859375,0.17578125-0.2490234375,0.21240234375t-0.3369140625,0.03662109375q-0.087890625,0-0.2783203125-0.0732421875q-1.083984375,0.5712890625-1.845703125,1.552734375t-1.2451171875,2.17529296875t-0.703125,2.51953125t-0.2197265625,2.58544921875q0,0.6298828125-0.28564453125,0.76171875t-0.91552734375,0.1318359375q-0.3369140625,0-0.71044921875-0.0732421875t-0.52001953125-0.46875q-0.263671875-0.8349609375-0.43212890625-1.9189453125t-0.25634765625-2.23388671875t-0.12451171875-2.26318359375t-0.03662109375-2.0068359375z"/><path fill="#" d=""/></svg>
